<svg width="15" height="14" viewBox="0 0 15 14" fill="none" xmlns="http://www.w3.org/2000/svg">
<path d="M8.20054 0.674316C8.95081 0.675556 9.331 0.679526 9.65954 0.689306L9.78894 0.693536C9.93844 0.698856 10.0858 0.705516 10.2636 0.713856C10.973 0.746626 11.457 0.858856 11.882 1.02386C12.3214 1.1933 12.6925 1.42219 13.063 1.79274C13.433 2.1633 13.662 2.53552 13.832 2.97386C13.9964 3.3983 14.1086 3.88274 14.142 4.59219C14.1499 4.76996 14.1563 4.91743 14.1616 5.06693L14.1658 5.19632C14.1755 5.52482 14.18 5.90507 14.1814 6.65534L14.1819 7.15247C14.182 7.2132 14.182 7.27587 14.182 7.34054L14.1819 7.5286L14.1815 8.02574C14.1802 8.77601 14.1763 9.1562 14.1665 9.48474L14.1622 9.61414C14.157 9.76364 14.1503 9.91104 14.142 10.0888C14.1092 10.7982 13.9964 11.2822 13.832 11.7072C13.6625 12.1466 13.433 12.5177 13.063 12.8882C12.6925 13.2582 12.3197 13.4872 11.882 13.6572C11.457 13.8216 10.973 13.9338 10.2636 13.9672C10.0858 13.9751 9.93844 13.9815 9.78894 13.9868L9.65954 13.991C9.331 14.0007 8.95081 14.0052 8.20054 14.0066L7.7034 14.0071C7.64267 14.0072 7.58001 14.0072 7.51534 14.0072L7.32727 14.0071L6.83014 14.0067C6.07987 14.0054 5.69962 14.0015 5.37112 13.9917L5.24173 13.9874C5.09223 13.9822 4.94476 13.9755 4.76699 13.9672C4.05754 13.9344 3.57421 13.8216 3.14866 13.6572C2.70976 13.4877 2.3381 13.2582 1.96754 12.8882C1.59699 12.5177 1.36866 12.1449 1.19866 11.7072C1.03366 11.2822 0.921991 10.7982 0.888661 10.0888C0.880741 9.91104 0.874281 9.76364 0.869041 9.61414L0.864851 9.48474C0.855101 9.1562 0.850651 8.77601 0.849211 8.02574L0.849121 6.65534C0.850361 5.90507 0.854331 5.52482 0.864111 5.19632L0.868341 5.06693C0.873661 4.91743 0.880321 4.76996 0.888661 4.59219C0.921431 3.88219 1.03366 3.39886 1.19866 2.97386C1.3681 2.53496 1.59699 2.1633 1.96754 1.79274C2.3381 1.42219 2.71032 1.19386 3.14866 1.02386C3.57366 0.858856 4.05699 0.747186 4.76699 0.713856C4.94476 0.705936 5.09223 0.699476 5.24173 0.694236L5.37112 0.690046C5.69962 0.680296 6.07987 0.675846 6.83014 0.674406L8.20054 0.674316ZM7.51534 4.00719C5.67339 4.00719 4.18199 5.50021 4.18199 7.34054C4.18199 9.18247 5.67501 10.6738 7.51534 10.6738C9.35727 10.6738 10.8486 9.18081 10.8486 7.34054C10.8486 5.49859 9.35561 4.00719 7.51534 4.00719ZM7.51534 5.34053C8.61994 5.34053 9.51534 6.23561 9.51534 7.34054C9.51534 8.44514 8.62021 9.34054 7.51534 9.34054C6.41074 9.34054 5.51533 8.44541 5.51533 7.34054C5.51533 6.23594 6.41041 5.34053 7.51534 5.34053ZM11.0153 3.00719C10.5558 3.00719 10.182 3.38046 10.182 3.83996C10.182 4.29945 10.5552 4.6733 11.0153 4.6733C11.4748 4.6733 11.8486 4.30003 11.8486 3.83996C11.8486 3.38046 11.4742 3.00661 11.0153 3.00719Z" fill="#090909"/>
</svg>
