<svg width="757" height="334" viewBox="0 0 757 334" fill="none" xmlns="http://www.w3.org/2000/svg">
<g opacity="0.2" filter="url(#filter0_b_20_2295)">
<path d="M20.3497 256V51.52H95.6097C97.5977 51.52 99.6331 51.6147 101.716 51.804C103.798 51.8987 106.118 52.1827 108.674 52.656C118.519 54.1707 127.039 57.768 134.234 63.448C141.523 69.0333 147.108 76.1333 150.99 84.748C154.966 93.268 156.954 102.64 156.954 112.864C156.954 123.088 154.966 132.507 150.99 141.122C147.108 149.642 141.523 156.742 134.234 162.422C127.039 168.007 118.519 171.557 108.674 173.072C106.118 173.451 103.798 173.735 101.716 173.924C99.6331 174.113 97.5977 174.208 95.6097 174.208H32.2777V256H20.3497ZM32.2777 162.28H95.6097C97.2191 162.28 99.1124 162.185 101.29 161.996C103.562 161.807 105.834 161.523 108.106 161.144C115.963 159.629 122.542 156.505 127.844 151.772C133.24 147.039 137.31 141.311 140.056 134.59C142.801 127.774 144.174 120.532 144.174 112.864C144.174 105.196 142.801 98.0013 140.056 91.28C137.31 84.464 133.24 78.6893 127.844 73.956C122.542 69.2227 115.963 66.0987 108.106 64.584C105.834 64.1107 103.562 63.8267 101.29 63.732C99.1124 63.5427 97.2191 63.448 95.6097 63.448H32.2777V162.28ZM185.369 256V51.52H260.629C262.617 51.52 264.653 51.6147 266.735 51.804C268.818 51.8987 271.137 52.1827 273.693 52.656C283.539 54.1707 292.059 57.768 299.253 63.448C306.543 69.0333 312.128 76.1333 316.009 84.748C319.985 93.268 321.973 102.64 321.973 112.864C321.973 127.443 317.997 140.223 310.045 151.204C302.093 162.185 291.301 169.191 277.669 172.22L275.397 174.208H197.297V256H185.369ZM313.453 256L273.125 172.788L283.349 165.12L327.653 256H313.453ZM197.297 162.28H260.629C262.239 162.28 264.132 162.185 266.309 161.996C268.581 161.807 270.853 161.523 273.125 161.144C280.983 159.629 287.562 156.505 292.863 151.772C298.259 147.039 302.33 141.311 305.075 134.59C307.821 127.774 309.193 120.532 309.193 112.864C309.193 105.196 307.821 98.0013 305.075 91.28C302.33 84.464 298.259 78.6893 292.863 73.956C287.562 69.2227 280.983 66.0987 273.125 64.584C270.853 64.1107 268.581 63.8267 266.309 63.732C264.132 63.5427 262.239 63.448 260.629 63.448H197.297V162.28ZM361.826 256V51.52H373.754V256H361.826ZM496.769 260.26C476.415 260.26 459.423 255.716 445.791 246.628C432.253 237.54 422.077 224.997 415.261 208.998C408.445 192.999 405.037 174.587 405.037 153.76C405.037 132.933 408.445 114.521 415.261 98.522C422.077 82.5233 432.253 69.98 445.791 60.892C459.423 51.804 476.415 47.26 496.769 47.26C520.625 47.26 539.842 53.508 554.421 66.004C568.999 78.4053 578.845 94.972 583.957 115.704L571.461 118.544C566.917 100.463 558.397 86.0733 545.901 75.376C533.499 64.584 517.122 59.188 496.769 59.188C479.255 59.188 464.677 63.2113 453.033 71.258C441.483 79.3047 432.774 90.4753 426.905 104.77C421.035 118.97 418.006 135.3 417.817 153.76C417.627 172.22 420.467 188.55 426.337 202.75C432.206 216.95 441.01 228.121 452.749 236.262C464.582 244.309 479.255 248.332 496.769 248.332C517.122 248.332 533.499 242.936 545.901 232.144C558.397 221.352 566.917 206.963 571.461 188.976L583.957 191.816C578.845 212.548 568.999 229.162 554.421 241.658C539.842 254.059 520.625 260.26 496.769 260.26ZM615.252 256V51.52H740.212V63.448H627.18V147.796H723.172V159.724H627.18V244.072H740.212V256H615.252Z" fill="white"/>
</g>
<defs>
<filter id="filter0_b_20_2295" x="-2.03027" y="-42.5" width="815.12" height="379" filterUnits="userSpaceOnUse" color-interpolation-filters="sRGB">
<feFlood flood-opacity="0" result="BackgroundImageFix"/>
<feGaussianBlur in="BackgroundImageFix" stdDeviation="1.25"/>
<feComposite in2="SourceAlpha" operator="in" result="effect1_backgroundBlur_20_2295"/>
<feBlend mode="normal" in="SourceGraphic" in2="effect1_backgroundBlur_20_2295" result="shape"/>
</filter>
</defs>
</svg>
