<svg width="720" height="204" viewBox="0 0 720 204" fill="none" xmlns="http://www.w3.org/2000/svg">
<g opacity="0.2" filter="url(#filter0_b_1_5126)">
<path d="M19.88 253V48.52H97.412C107.257 48.52 116.345 50.65 124.676 54.91C133.007 59.0753 139.681 64.9447 144.698 72.518C149.715 80.0913 152.224 88.848 152.224 98.788C152.224 109.58 149.1 119.52 142.852 128.608C136.604 137.601 128.368 143.944 118.144 147.636L117.576 140.82C131.113 145.175 141.953 152.18 150.094 161.836C158.33 171.397 162.448 183.42 162.448 197.904C162.448 209.548 159.797 219.488 154.496 227.724C149.195 235.865 142 242.113 132.912 246.468C123.919 250.823 113.884 253 102.808 253H19.88ZM31.808 241.072H97.128C106.973 241.072 115.825 239.415 123.682 236.102C131.634 232.789 137.882 228.008 142.426 221.76C147.065 215.512 149.384 207.939 149.384 199.04C149.384 190.141 147.254 182.095 142.994 174.9C138.829 167.611 133.196 161.836 126.096 157.576C119.091 153.221 111.328 151.044 102.808 151.044H31.808V241.072ZM31.808 139.4H97.412C105.08 139.4 112.085 137.554 118.428 133.862C124.865 130.17 129.977 125.2 133.764 118.952C137.551 112.704 139.444 105.699 139.444 97.936C139.444 86.576 135.373 77.4407 127.232 70.53C119.185 63.6193 109.245 60.164 97.412 60.164H31.808V139.4ZM201.806 253V48.52H213.734V241.072H315.406V253H201.806ZM422.925 257.26C402.571 257.26 385.579 252.716 371.947 243.628C358.409 234.54 348.233 221.997 341.417 205.998C334.601 189.999 331.193 171.587 331.193 150.76C331.193 129.933 334.601 111.521 341.417 95.522C348.233 79.5233 358.409 66.98 371.947 57.892C385.579 48.804 402.571 44.26 422.925 44.26C443.278 44.26 460.223 48.804 473.761 57.892C487.393 66.98 497.617 79.5233 504.433 95.522C511.249 111.521 514.657 129.933 514.657 150.76C514.657 171.587 511.249 189.999 504.433 205.998C497.617 221.997 487.393 234.54 473.761 243.628C460.223 252.716 443.278 257.26 422.925 257.26ZM422.925 245.332C440.438 245.332 455.017 241.309 466.661 233.262C478.399 225.121 487.203 213.95 493.073 199.75C498.942 185.55 501.877 169.22 501.877 150.76C501.877 132.3 498.942 115.97 493.073 101.77C487.203 87.4753 478.399 76.3047 466.661 68.258C455.017 60.2113 440.438 56.188 422.925 56.188C405.411 56.188 390.833 60.2113 379.189 68.258C367.639 76.3047 358.93 87.4753 353.061 101.77C347.191 115.97 344.162 132.3 343.973 150.76C343.783 169.22 346.623 185.55 352.493 199.75C358.362 213.95 367.166 225.121 378.905 233.262C390.738 241.309 405.411 245.332 422.925 245.332ZM631.964 257.26C616.723 257.26 603.375 254.657 591.92 249.45C580.466 244.243 570.904 236.907 563.236 227.44C555.568 217.973 549.794 206.755 545.912 193.786C542.126 180.722 540.232 166.38 540.232 150.76C540.232 129.933 543.64 111.568 550.456 95.664C557.272 79.6653 567.449 67.1693 580.986 58.176C594.618 49.088 611.611 44.544 631.964 44.544C651.466 44.544 667.701 49.1353 680.67 58.318C693.64 67.406 702.87 79.192 708.36 93.676L696.716 98.504C691.794 85.724 683.794 75.5473 672.718 67.974C661.642 60.306 648.058 56.472 631.964 56.472C614.451 56.472 599.872 60.4953 588.228 68.542C576.679 76.494 567.97 87.57 562.1 101.77C556.231 115.97 553.202 132.3 553.012 150.76C552.823 169.22 555.663 185.55 561.532 199.75C567.402 213.95 576.206 225.121 587.944 233.262C599.778 241.309 614.451 245.332 631.964 245.332C649.478 245.332 663.63 241.877 674.422 234.966C685.214 227.961 693.072 218.257 697.994 205.856C703.012 193.455 705.52 179.065 705.52 162.688H650.992V150.76H717.732C718.016 153.411 718.158 155.777 718.158 157.86C718.253 159.943 718.3 161.647 718.3 162.972C718.3 180.769 715.318 196.815 709.354 211.11C703.39 225.31 694.018 236.575 681.238 244.906C668.553 253.142 652.128 257.26 631.964 257.26Z" fill="white"/>
</g>
<defs>
<filter id="filter0_b_1_5126" x="-2.5" y="-2.5" width="741.7" height="293" filterUnits="userSpaceOnUse" color-interpolation-filters="sRGB">
<feFlood flood-opacity="0" result="BackgroundImageFix"/>
<feGaussianBlur in="BackgroundImageFix" stdDeviation="1.25"/>
<feComposite in2="SourceAlpha" operator="in" result="effect1_backgroundBlur_1_5126"/>
<feBlend mode="normal" in="SourceGraphic" in2="effect1_backgroundBlur_1_5126" result="shape"/>
</filter>
</defs>
</svg>
