<svg width="1380" height="272" viewBox="0 0 1380 272" fill="none" xmlns="http://www.w3.org/2000/svg">
<g opacity="0.2" filter="url(#filter0_b_21_4007)">
<path d="M361.013 238.5V34.02H438.545C448.39 34.02 457.478 36.15 465.809 40.41C474.139 44.5753 480.813 50.4447 485.831 58.018C490.848 65.5913 493.357 74.348 493.357 84.288C493.357 95.08 490.233 105.02 483.985 114.108C477.737 123.101 469.501 129.444 459.277 133.136L458.709 126.32C472.246 130.675 483.085 137.68 491.227 147.336C499.463 156.897 503.581 168.92 503.581 183.404C503.581 195.048 500.93 204.988 495.629 213.224C490.327 221.365 483.133 227.613 474.045 231.968C465.051 236.323 455.017 238.5 443.941 238.5H361.013ZM372.941 226.572H438.261C448.106 226.572 456.957 224.915 464.815 221.602C472.767 218.289 479.015 213.508 483.559 207.26C488.197 201.012 490.517 193.439 490.517 184.54C490.517 175.641 488.387 167.595 484.127 160.4C479.961 153.111 474.329 147.336 467.229 143.076C460.223 138.721 452.461 136.544 443.941 136.544H372.941V226.572ZM372.941 124.9H438.545C446.213 124.9 453.218 123.054 459.561 119.362C465.998 115.67 471.11 110.7 474.897 104.452C478.683 98.204 480.577 91.1987 480.577 83.436C480.577 72.076 476.506 62.9407 468.365 56.03C460.318 49.1193 450.378 45.664 438.545 45.664H372.941V124.9ZM531.579 238.5V34.02H656.539V45.948H543.507V130.296H639.499V142.224H543.507V226.572H656.539V238.5H531.579ZM676.297 238.5L750.705 34.02H763.485L837.893 238.5H825.113L752.693 39.416H761.213L689.077 238.5H676.297ZM704.697 185.392V174.032H809.209V185.392H704.697ZM936.113 242.76C920.966 242.76 907.523 239.589 895.785 233.246C884.046 226.903 874.816 218.005 868.095 206.55C861.373 195.001 858.013 181.511 858.013 166.08V34.02H869.941V162.104C869.941 174.695 872.071 185.439 876.331 194.338C880.591 203.142 886.081 210.289 892.803 215.78C899.524 221.176 906.719 225.152 914.387 227.708C922.055 230.169 929.297 231.4 936.113 231.4C942.929 231.4 950.171 230.169 957.839 227.708C965.507 225.152 972.701 221.176 979.423 215.78C986.144 210.289 991.635 203.142 995.895 194.338C1000.15 185.439 1002.28 174.695 1002.28 162.104V34.02H1014.21V166.08C1014.21 181.416 1010.85 194.859 1004.13 206.408C997.409 217.863 988.179 226.809 976.441 233.246C964.702 239.589 951.259 242.76 936.113 242.76ZM1112.03 238.5V45.948H1037.05V34.02H1198.93V45.948H1123.96V238.5H1112.03ZM1278.2 238.5V151.596L1210.33 34.02H1223.96L1284.17 137.964L1344.09 34.02H1357.72L1290.13 151.596V238.5H1278.2Z" fill="white"/>
</g>
<defs>
<filter id="filter0_b_21_4007" x="-2.5" y="-15" width="1460.23" height="289" filterUnits="userSpaceOnUse" color-interpolation-filters="sRGB">
<feFlood flood-opacity="0" result="BackgroundImageFix"/>
<feGaussianBlur in="BackgroundImageFix" stdDeviation="1.25"/>
<feComposite in2="SourceAlpha" operator="in" result="effect1_backgroundBlur_21_4007"/>
<feBlend mode="normal" in="SourceGraphic" in2="effect1_backgroundBlur_21_4007" result="shape"/>
</filter>
</defs>
</svg>
