<svg width="15" height="11" viewBox="0 0 15 11" fill="none" xmlns="http://www.w3.org/2000/svg">
<path d="M7.67789 0.00683594C8.03396 0.00879594 8.92483 0.0174157 9.87133 0.0553257L10.2069 0.0699558C11.1599 0.115076 12.1121 0.192156 12.5844 0.323836C13.2143 0.500806 13.7095 1.01718 13.8768 1.67172C14.1433 2.71112 14.1766 4.73978 14.1807 5.23071L14.1813 5.33244V5.33958C14.1813 5.33958 14.1813 5.34204 14.1813 5.34678L14.1807 5.44851C14.1766 5.93944 14.1433 7.96814 13.8768 9.00754C13.7071 9.66444 13.212 10.1808 12.5844 10.3553C12.1121 10.487 11.1599 10.5641 10.2069 10.6092L9.87133 10.6238C8.92483 10.6617 8.03396 10.6703 7.67789 10.6723L7.52163 10.6729H7.51469C7.51469 10.6729 7.51236 10.6729 7.50776 10.6729L7.35163 10.6723C6.59803 10.6682 3.44711 10.6341 2.44497 10.3553C1.81503 10.1783 1.31991 9.66204 1.15254 9.00754C0.886093 7.96814 0.852793 5.93944 0.848633 5.44851V5.23071C0.852793 4.73978 0.886093 2.71112 1.15254 1.67172C1.32223 1.01475 1.81735 0.498386 2.44497 0.323836C3.44711 0.0449958 6.59803 0.0109859 7.35163 0.00683594H7.67789ZM6.18137 3.00627V7.67294L10.1813 5.33958L6.18137 3.00627Z" fill="#090909"/>
</svg>
